<svg width="63" height="39" viewBox="0 0 63 39" fill="none" xmlns="http://www.w3.org/2000/svg">
<path d="M43.0779 6.00214H38.0522L45.7703 18.2074L33.0266 38.1307H38.5907L48.2831 22.6946L53.1293 29.5152H58.155L43.0779 6.00214Z" fill="#754BF6"/>
<path d="M63.0006 0.0792842C61.3852 0.0194545 58.0826 -0.0643071 57.7954 0.0792842L49.3594 13.1819L52.4107 17.1307L63.0006 0.0792842Z" fill="#754BF6"/>
<path d="M12.8648 11.7973H16.1767L14.494 21.97C14.3053 23.1122 13.8693 24.1117 13.186 24.9683C12.5028 25.825 11.6334 26.493 10.5778 26.9723C9.52233 27.4465 8.34443 27.6836 7.04415 27.6836C5.74388 27.6836 4.64757 27.4465 3.75522 26.9723C2.86287 26.493 2.21784 25.825 1.8201 24.9683C1.42237 24.1117 1.31784 23.1122 1.50651 21.97L3.18922 11.7973H6.5011L4.85663 21.687C4.76485 22.2836 4.81074 22.8139 4.99431 23.278C5.18297 23.742 5.49402 24.1066 5.92745 24.3717C6.36087 24.6369 6.89628 24.7695 7.53367 24.7695C8.17616 24.7695 8.75746 24.6369 9.27757 24.3717C9.80278 24.1066 10.2337 23.742 10.5702 23.278C10.9118 22.8139 11.1286 22.2836 11.2203 21.687L12.8648 11.7973ZM32.0037 11.7973L29.4032 27.4618H26.5426L21.3797 17.6026H21.2573L19.6129 27.4618H16.301L18.9015 11.7973H21.808L26.9479 21.6488H27.078L28.7071 11.7973H32.0037ZM38.0519 11.7973L35.4514 27.4618H32.1395L34.74 11.7973H38.0519Z" fill="white"/>
</svg>
